<svg width="369" height="127" viewBox="0 0 369 127" fill="none" xmlns="http://www.w3.org/2000/svg">
<path d="M72.5845 74.2761C72.5845 78.0508 69.0542 80.7905 65.4021 79.8773L4.38247 64.6263C1.82603 63.9871 0 61.6735 0 59.0252V54.4286V36.2857L63.4848 0L127 36.2857V58.9643L108.861 54.4286V48.6448C108.861 46.6052 107.796 44.7179 106.031 43.6829L66.4369 20.0911C64.6108 18.9952 62.3283 18.9952 60.5327 20.0911L20.9384 43.6829C19.2037 44.7179 18.1081 46.6052 18.1081 48.6448V54.4286L54.3851 63.5V54.4286H54.3547V52.7543C54.3547 48.9796 57.885 46.2399 61.537 47.1532L126.939 63.5H126.97H127V90.7143L63.4543 127L0 90.7447V68.0662L18.1385 72.6019V78.3857C18.1385 80.4252 19.2037 82.3126 20.9689 83.3476L60.5631 106.939C62.3892 108.035 64.6717 108.035 66.4673 106.939L106.062 83.3476C107.796 82.3126 108.892 80.4252 108.892 78.3857V72.6019L72.5845 63.5304V74.2761Z" fill="#1A1A1A"/>
<path d="M169.336 78.64C167.075 78.64 164.92 78.4693 162.872 78.128C160.824 77.8293 159.181 77.4453 157.944 76.976V69.808C159.437 70.4053 161.123 70.8747 163 71.216C164.877 71.5147 166.605 71.664 168.184 71.664C170.317 71.664 171.811 71.536 172.664 71.28C173.56 71.024 174.008 70.448 174.008 69.552C174.008 68.528 173.325 67.7813 171.96 67.312C170.637 66.8427 168.653 66.1813 166.008 65.328C163.235 64.3893 161.101 63.2587 159.608 61.936C158.115 60.6133 157.368 58.6507 157.368 56.048C157.368 53.1467 158.413 50.928 160.504 49.392C162.637 47.8133 166.051 47.024 170.744 47.024C172.621 47.024 174.392 47.1733 176.056 47.472C177.72 47.728 179.128 48.048 180.28 48.432V55.536C179.128 54.9813 177.805 54.576 176.312 54.32C174.819 54.0213 173.432 53.872 172.152 53.872C170.317 53.872 168.845 54 167.736 54.256C166.669 54.512 166.136 55.0667 166.136 55.92C166.136 56.8587 166.712 57.52 167.864 57.904C169.059 58.288 170.893 58.864 173.368 59.632C175.8 60.3573 177.699 61.1467 179.064 62C180.429 62.8533 181.389 63.8773 181.944 65.072C182.499 66.224 182.776 67.6747 182.776 69.424C182.776 75.568 178.296 78.64 169.336 78.64ZM203.003 78.64C197.329 78.64 193.169 77.2747 190.524 74.544C187.878 71.7707 186.556 67.8667 186.556 62.832C186.556 57.7973 187.878 53.9147 190.524 51.184C193.212 48.4107 197.372 47.024 203.003 47.024C208.678 47.024 212.838 48.4107 215.484 51.184C218.172 53.9147 219.516 57.7973 219.516 62.832C219.516 67.8667 218.193 71.7707 215.548 74.544C212.902 77.2747 208.721 78.64 203.003 78.64ZM203.003 71.28C205.777 71.28 207.761 70.6613 208.956 69.424C210.15 68.144 210.748 65.9467 210.748 62.832C210.748 59.7173 210.15 57.5413 208.956 56.304C207.761 55.024 205.777 54.384 203.003 54.384C200.273 54.384 198.31 55.024 197.116 56.304C195.921 57.5413 195.324 59.7173 195.324 62.832C195.324 65.9467 195.921 68.144 197.116 69.424C198.31 70.6613 200.273 71.28 203.003 71.28ZM233.971 78.64C231.027 78.64 228.872 77.9573 227.507 76.592C226.184 75.2267 225.523 73.0507 225.523 70.064V34.864H234.163V69.36C234.163 70.4267 234.376 71.1733 234.803 71.6C235.23 71.984 235.848 72.176 236.659 72.176C237.768 72.176 238.771 72.0267 239.667 71.728V77.68C238.046 78.32 236.147 78.64 233.971 78.64ZM254.161 78.64C250.534 78.64 247.697 77.6373 245.649 75.632C243.643 73.584 242.641 70.5973 242.641 66.672V47.664H251.281V66.48C251.281 68.528 251.771 70.0213 252.753 70.96C253.734 71.856 255.206 72.304 257.169 72.304C258.662 72.304 260.027 72.0053 261.265 71.408C262.545 70.8107 263.633 70.064 264.529 69.168V47.664H273.169V78H265.169L264.849 75.12C263.569 76.144 262.054 76.9973 260.305 77.68C258.598 78.32 256.55 78.64 254.161 78.64ZM292.555 78.64C289.056 78.64 286.454 77.7227 284.747 75.888C283.083 74.0533 282.251 71.5573 282.251 68.4V54.32H277.963V47.664H282.251V41.136L290.891 38.576V47.664H298.571L298.059 54.32H290.891V67.824C290.891 69.488 291.275 70.64 292.043 71.28C292.811 71.8773 294.006 72.176 295.627 72.176C296.822 72.176 298.059 71.9627 299.339 71.536V77.488C298.4 77.872 297.376 78.1493 296.267 78.32C295.158 78.5333 293.92 78.64 292.555 78.64ZM305.885 42.096V35.312H315.293V42.096H305.885ZM306.589 78V54.064H302.045L302.813 47.664H315.229V78H306.589ZM331.034 78.64C328.09 78.64 325.935 77.9573 324.57 76.592C323.247 75.2267 322.586 73.0507 322.586 70.064V34.864H331.226V69.36C331.226 70.4267 331.439 71.1733 331.866 71.6C332.292 71.984 332.911 72.176 333.722 72.176C334.831 72.176 335.834 72.0267 336.73 71.728V77.68C335.108 78.32 333.21 78.64 331.034 78.64ZM352.336 78.64C350.075 78.64 347.92 78.4693 345.872 78.128C343.824 77.8293 342.181 77.4453 340.944 76.976V69.808C342.437 70.4053 344.123 70.8747 346 71.216C347.877 71.5147 349.605 71.664 351.184 71.664C353.317 71.664 354.811 71.536 355.664 71.28C356.56 71.024 357.008 70.448 357.008 69.552C357.008 68.528 356.325 67.7813 354.96 67.312C353.637 66.8427 351.653 66.1813 349.008 65.328C346.235 64.3893 344.101 63.2587 342.608 61.936C341.115 60.6133 340.368 58.6507 340.368 56.048C340.368 53.1467 341.413 50.928 343.504 49.392C345.637 47.8133 349.051 47.024 353.744 47.024C355.621 47.024 357.392 47.1733 359.056 47.472C360.72 47.728 362.128 48.048 363.28 48.432V55.536C362.128 54.9813 360.805 54.576 359.312 54.32C357.819 54.0213 356.432 53.872 355.152 53.872C353.317 53.872 351.845 54 350.736 54.256C349.669 54.512 349.136 55.0667 349.136 55.92C349.136 56.8587 349.712 57.52 350.864 57.904C352.059 58.288 353.893 58.864 356.368 59.632C358.8 60.3573 360.699 61.1467 362.064 62C363.429 62.8533 364.389 63.8773 364.944 65.072C365.499 66.224 365.776 67.6747 365.776 69.424C365.776 75.568 361.296 78.64 352.336 78.64Z" fill="#1A1A1A"/>
</svg>
