<svg width="447" height="140" viewBox="0 0 447 140" fill="none" xmlns="http://www.w3.org/2000/svg">
<g clip-path="url(#clip0_101_123)">
<path d="M39.2605 110.132H24.0524C10.8033 110.132 0.0231934 120.903 0.0231934 134.156V140H70.6041C68.4248 138.806 66.4543 137.333 64.7271 135.606L39.2605 110.132Z" fill="#1A1A1A"/>
<path d="M86.7743 43.868H101.982C115.232 43.868 126 33.0849 126 19.8437V14H55.4424C57.61 15.1943 59.5806 16.6668 61.3077 18.3944L86.7859 43.8796L86.7743 43.868Z" fill="#1A1A1A"/>
<path d="M82.81 135.687C82.3463 135.559 81.8942 135.409 81.4422 135.258C77.5706 133.959 74.1627 131.849 71.3228 128.997L11.0236 68.6808C6.074 63.7298 3.34999 57.144 3.34999 50.1408C3.34999 47.9262 3.63978 45.7116 4.19617 43.5434C-2.20235 52.6105 -1.21707 64.9937 6.73472 72.9592L67.0339 133.275C70.9055 137.148 76.0637 139.501 81.5697 139.907C82.0102 139.942 82.4622 139.965 82.9027 139.965C83.3548 139.965 83.7952 139.965 84.2357 139.93C88.7101 139.745 92.9294 138.307 96.4996 135.78C92.4773 136.835 88.4435 136.951 84.1778 136.011C83.7257 135.907 83.262 135.803 82.81 135.675V135.687Z" fill="#1A1A1A"/>
<path d="M84.085 126.979C83.7141 126.782 83.3548 126.562 82.9954 126.33L82.7172 126.156C82.2188 125.843 81.7667 125.553 81.3494 125.251C80.0396 124.324 78.9268 123.385 77.9299 122.388L17.6307 62.0718C11.0815 55.5207 8.49661 45.8971 10.8381 36.888C10.699 37.0967 10.5483 37.2938 10.4208 37.5025C7.94021 41.2476 6.63037 45.6072 6.63037 50.1292C6.63037 56.2512 9.01823 62.0138 13.3419 66.3502L73.641 126.666C75.913 128.939 78.6022 130.678 81.6392 131.837C82.0797 132.011 82.5202 132.162 82.9722 132.301C83.4127 132.44 83.8532 132.556 84.3053 132.661C90.5531 134.214 97.1835 133.09 102.492 129.588C102.689 129.46 102.886 129.321 103.084 129.182C100.881 129.75 98.6556 130.052 96.4648 130.052C92.1411 130.052 87.8523 128.985 84.085 126.956V126.979Z" fill="#1A1A1A"/>
<path d="M119.289 81.0292L58.9778 20.7134C54.8048 16.5277 49.2177 14.1507 43.2712 14.0232C43.1901 14.0232 43.1089 14.0232 43.0278 14.0116C42.9351 14.0116 42.8539 14 42.7612 14C42.5989 14 42.4366 14 42.2743 14.0232C42.1584 14.0232 42.0425 14.0348 41.9382 14.0464H41.6368C41.2891 14.0696 40.9529 14.0812 40.6052 14.1044C36.0613 14.5334 31.7956 16.2726 28.2834 19.1481C27.6806 19.635 27.101 20.1684 26.5562 20.7134C26.3592 20.9105 26.1853 21.1076 26.0114 21.3047L25.7564 21.5946C24.8986 22.5337 24.2031 23.4265 23.6236 24.3077C23.4729 24.528 23.3454 24.7599 23.2179 24.9802L23.044 25.2817C22.7194 25.8266 22.418 26.3832 22.1514 26.9397C21.8501 27.5658 21.6182 28.0992 21.4212 28.6094C21.1314 29.363 20.8764 30.1631 20.6445 31.0211L20.5634 31.3109C20.4591 31.682 20.3663 32.053 20.2852 32.424C20.2156 32.7603 20.1693 33.1081 20.1229 33.456L20.0766 33.7922C19.9143 34.9865 19.8331 35.9836 19.8331 36.9344C19.8331 43.068 22.221 48.819 26.5562 53.1554L86.8554 113.471C91.9557 118.573 99.0033 120.927 106.202 119.941L106.41 119.918C106.804 119.86 107.199 119.814 107.593 119.732C108.022 119.651 108.45 119.535 108.868 119.419L108.972 119.396C109.841 119.164 110.641 118.909 111.395 118.619C111.905 118.422 112.438 118.19 113.075 117.877C113.62 117.622 114.153 117.321 114.721 116.996L115.058 116.799C115.278 116.671 115.498 116.544 115.707 116.405C116.565 115.837 117.445 115.141 118.419 114.271C118.523 114.179 118.628 114.086 118.732 113.993C118.918 113.831 119.115 113.657 119.3 113.471C119.845 112.926 120.367 112.347 120.853 111.744C124.227 107.616 126.012 102.607 126.012 97.2502C126.012 91.1282 123.624 85.3656 119.3 81.0292H119.289Z" fill="#1A1A1A"/>
<path d="M107.164 123.106L106.839 123.153C106.457 123.211 106.074 123.269 105.692 123.315C104.787 123.408 103.895 123.454 103.049 123.454C96.0358 123.454 89.4518 120.73 84.5139 115.79L76.0752 107.349L24.2263 55.4744C19.2767 50.5234 16.5527 43.9376 16.5527 36.9344C16.5527 36.0648 16.599 35.172 16.6802 34.2908C16.7149 33.9197 16.7729 33.5603 16.8309 33.2009L16.8888 32.8298C16.97 32.3313 17.0511 31.8443 17.1554 31.3573C17.2366 31.0095 17.3177 30.6616 17.4104 30.3138C17.2713 30.5109 17.1438 30.708 17.0047 30.8935C16.8656 31.1022 16.7497 31.3109 16.6222 31.5312L16.4252 31.8675C16.089 32.4356 15.7992 32.9806 15.5326 33.5255C15.2196 34.1632 14.9878 34.6966 14.7908 35.1952C11.4872 43.6941 13.5041 53.3293 19.9258 59.7528L80.225 120.069C80.735 120.579 81.2682 121.043 81.6739 121.39C82.1376 121.785 82.636 122.144 83.0069 122.422C83.459 122.747 83.8995 123.048 84.34 123.327C87.9681 125.599 92.1527 126.794 96.4299 126.794C99.2699 126.794 102.075 126.26 104.741 125.228C105.263 125.031 105.808 124.788 106.41 124.486C106.955 124.22 107.511 123.918 108.056 123.605L108.334 123.443C108.578 123.304 108.821 123.164 109.053 123.014C109.262 122.875 109.47 122.735 109.667 122.585C109.308 122.677 108.949 122.77 108.589 122.84C108.103 122.944 107.616 123.025 107.129 123.106H107.164Z" fill="#1A1A1A"/>
</g>
<path d="M185.816 93.84C182.848 93.84 180.02 93.616 177.332 93.168C174.644 92.776 172.488 92.272 170.864 91.656V82.248C172.824 83.032 175.036 83.648 177.5 84.096C179.964 84.488 182.232 84.684 184.304 84.684C187.104 84.684 189.064 84.516 190.184 84.18C191.36 83.844 191.948 83.088 191.948 81.912C191.948 80.568 191.052 79.588 189.26 78.972C187.524 78.356 184.92 77.488 181.448 76.368C177.808 75.136 175.008 73.652 173.048 71.916C171.088 70.18 170.108 67.604 170.108 64.188C170.108 60.38 171.48 57.468 174.224 55.452C177.024 53.38 181.504 52.344 187.664 52.344C190.128 52.344 192.452 52.54 194.636 52.932C196.82 53.268 198.668 53.688 200.18 54.192V63.516C198.668 62.788 196.932 62.256 194.972 61.92C193.012 61.528 191.192 61.332 189.512 61.332C187.104 61.332 185.172 61.5 183.716 61.836C182.316 62.172 181.616 62.9 181.616 64.02C181.616 65.252 182.372 66.12 183.884 66.624C185.452 67.128 187.86 67.884 191.108 68.892C194.3 69.844 196.792 70.88 198.584 72C200.376 73.12 201.636 74.464 202.364 76.032C203.092 77.544 203.456 79.448 203.456 81.744C203.456 89.808 197.576 93.84 185.816 93.84ZM230.005 93.84C222.557 93.84 217.097 92.048 213.625 88.464C210.153 84.824 208.417 79.7 208.417 73.092C208.417 66.484 210.153 61.388 213.625 57.804C217.153 54.164 222.613 52.344 230.005 52.344C237.453 52.344 242.913 54.164 246.385 57.804C249.913 61.388 251.677 66.484 251.677 73.092C251.677 79.7 249.941 84.824 246.469 88.464C242.997 92.048 237.509 93.84 230.005 93.84ZM230.005 84.18C233.645 84.18 236.249 83.368 237.817 81.744C239.385 80.064 240.169 77.18 240.169 73.092C240.169 69.004 239.385 66.148 237.817 64.524C236.249 62.844 233.645 62.004 230.005 62.004C226.421 62.004 223.845 62.844 222.277 64.524C220.709 66.148 219.925 69.004 219.925 73.092C219.925 77.18 220.709 80.064 222.277 81.744C223.845 83.368 226.421 84.18 230.005 84.18ZM270.649 93.84C266.785 93.84 263.957 92.944 262.165 91.152C260.429 89.36 259.561 86.504 259.561 82.584V36.384H270.901V81.66C270.901 83.06 271.181 84.04 271.741 84.6C272.301 85.104 273.113 85.356 274.177 85.356C275.633 85.356 276.949 85.16 278.125 84.768V92.58C275.997 93.42 273.505 93.84 270.649 93.84ZM297.148 93.84C292.388 93.84 288.664 92.524 285.976 89.892C283.344 87.204 282.028 83.284 282.028 78.132V53.184H293.368V77.88C293.368 80.568 294.012 82.528 295.3 83.76C296.588 84.936 298.52 85.524 301.096 85.524C303.056 85.524 304.848 85.132 306.472 84.348C308.152 83.564 309.58 82.584 310.756 81.408V53.184H322.096V93H311.596L311.176 89.22C309.496 90.564 307.508 91.684 305.212 92.58C302.972 93.42 300.284 93.84 297.148 93.84ZM347.541 93.84C342.949 93.84 339.533 92.636 337.293 90.228C335.109 87.82 334.017 84.544 334.017 80.4V61.92H328.389V53.184H334.017V44.616L345.357 41.256V53.184H355.437L354.765 61.92H345.357V79.644C345.357 81.828 345.861 83.34 346.869 84.18C347.877 84.964 349.445 85.356 351.573 85.356C353.141 85.356 354.765 85.076 356.445 84.516V92.328C355.213 92.832 353.869 93.196 352.413 93.42C350.957 93.7 349.333 93.84 347.541 93.84ZM365.037 45.876V36.972H377.385V45.876H365.037ZM365.961 93V61.584H359.997L361.005 53.184H377.301V93H365.961ZM398.044 93.84C394.18 93.84 391.352 92.944 389.56 91.152C387.824 89.36 386.956 86.504 386.956 82.584V36.384H398.296V81.66C398.296 83.06 398.576 84.04 399.136 84.6C399.696 85.104 400.508 85.356 401.572 85.356C403.028 85.356 404.344 85.16 405.52 84.768V92.58C403.392 93.42 400.9 93.84 398.044 93.84ZM426.004 93.84C423.036 93.84 420.208 93.616 417.52 93.168C414.832 92.776 412.676 92.272 411.052 91.656V82.248C413.012 83.032 415.224 83.648 417.688 84.096C420.152 84.488 422.42 84.684 424.492 84.684C427.292 84.684 429.252 84.516 430.372 84.18C431.548 83.844 432.136 83.088 432.136 81.912C432.136 80.568 431.24 79.588 429.448 78.972C427.712 78.356 425.108 77.488 421.636 76.368C417.996 75.136 415.196 73.652 413.236 71.916C411.276 70.18 410.296 67.604 410.296 64.188C410.296 60.38 411.668 57.468 414.412 55.452C417.212 53.38 421.692 52.344 427.852 52.344C430.316 52.344 432.64 52.54 434.824 52.932C437.008 53.268 438.856 53.688 440.368 54.192V63.516C438.856 62.788 437.12 62.256 435.16 61.92C433.2 61.528 431.38 61.332 429.7 61.332C427.292 61.332 425.36 61.5 423.904 61.836C422.504 62.172 421.804 62.9 421.804 64.02C421.804 65.252 422.56 66.12 424.072 66.624C425.64 67.128 428.048 67.884 431.296 68.892C434.488 69.844 436.98 70.88 438.772 72C440.564 73.12 441.824 74.464 442.552 76.032C443.28 77.544 443.644 79.448 443.644 81.744C443.644 89.808 437.764 93.84 426.004 93.84Z" fill="#1A1A1A"/>
<defs>
<clipPath id="clip0_101_123">
<rect width="126" height="126" fill="white" transform="translate(0 14)"/>
</clipPath>
</defs>
</svg>
