<svg width="201" height="200" viewBox="0 0 201 200" fill="none" xmlns="http://www.w3.org/2000/svg">
<g clip-path="url(#clip0_102_9)">
<path d="M62.2636 151.804H39.2984C18.1785 151.804 0.986572 168.996 0.986572 190.116V199.781H113.072C109.308 197.862 105.819 195.359 102.75 192.29L62.2636 151.804V151.804Z" fill="#F1F2F5"/>
<path d="M84.8086 0C89.1751 1.99141 93.231 4.75016 96.7205 8.2397L136.457 47.9766H161.98C183.1 47.9766 200.292 30.7847 200.292 9.66475V0H84.8086Z" fill="#F1F2F5"/>
<path d="M139.107 193.715C138.394 193.66 137.682 193.606 136.987 193.514C136.275 193.423 135.562 193.332 134.868 193.204C126.701 191.76 119.174 187.887 113.182 181.895L83.0913 151.804L80.972 149.685L78.8527 147.566L18.1237 86.8366C6.88773 75.6006 3.61743 59.3953 8.2397 45.2179C2.90491 51.7402 0 59.8155 0 68.3475C0 78.1219 3.80013 87.3116 10.7244 94.2359L64.0358 147.547L66.1551 149.667L68.2744 151.786L105.764 189.257C111.738 195.232 119.43 198.886 127.706 199.763C129.003 199.909 130.319 199.982 131.634 199.982C133.443 199.982 135.215 199.817 136.969 199.562C137.682 199.452 138.394 199.361 139.088 199.214C144.789 198.045 150.105 195.524 154.673 191.815C150.635 193.112 146.396 193.825 142.03 193.825C141.043 193.825 140.057 193.752 139.07 193.679L139.107 193.715Z" fill="#F1F2F5"/>
<path d="M152.462 183.429C147.931 183.429 143.418 182.644 139.107 181.146C138.394 180.908 137.682 180.671 136.987 180.396C136.275 180.104 135.562 179.757 134.868 179.41C130.794 177.473 126.957 174.861 123.596 171.481L103.919 151.804L101.8 149.685L99.6803 147.566L28.5193 76.4411C20.8094 68.7312 16.5525 58.4635 16.5525 47.5564C16.5525 43.9025 17.0641 40.3216 17.9959 36.8868C18.1786 36.2291 18.3612 35.5714 18.5622 34.9137C17.7949 35.8455 17.0824 36.8138 16.4429 37.8003C7.07048 51.996 8.62342 71.3438 21.12 83.8403L84.8269 147.547L86.9463 149.667L89.0656 151.786L116.141 178.862C121.33 184.05 127.798 187.485 134.813 188.874C135.508 189.02 136.238 189.093 136.933 189.184C137.645 189.276 138.339 189.367 139.052 189.422C140.038 189.495 141.007 189.568 142.012 189.568C149.283 189.568 156.244 187.449 162.163 183.521C163.186 182.845 164.173 182.114 165.141 181.328C164.465 181.547 163.789 181.748 163.113 181.931C159.605 182.881 156.025 183.374 152.407 183.374L152.462 183.429Z" fill="#F1F2F5"/>
<path d="M171.572 172.047C170.805 172.212 170.037 172.339 169.27 172.467C168.521 172.577 167.772 172.723 167.005 172.796C165.634 172.942 164.246 173.015 162.876 173.015C154.526 173.015 146.195 170.439 139.107 165.36C138.394 164.849 137.663 164.356 136.987 163.789C136.256 163.186 135.562 162.529 134.868 161.871C134.576 161.597 134.283 161.359 133.991 161.085L124.728 151.822L122.609 149.703L120.49 147.584L38.933 66.0272C29.926 57.0202 26.0162 44.8159 27.2038 33.0136C27.2769 32.2463 27.4047 31.4972 27.5326 30.7299C27.6605 29.9625 27.7884 29.2135 27.9528 28.4644C28.099 27.7884 28.2634 27.1124 28.4461 26.4547C28.6288 25.7605 28.8298 25.0845 29.049 24.4085C28.2634 25.3585 27.5326 26.3634 26.8566 27.3865C26.5095 27.898 26.2172 28.4279 25.9066 28.9577C25.3951 29.8164 24.92 30.6933 24.4998 31.5886C24.0796 32.4655 23.6777 33.3607 23.3123 34.256C21.6863 38.4398 20.8093 42.9159 20.8093 47.5199C20.8093 57.2942 24.6095 66.484 31.5337 73.4082L105.654 147.529L107.774 149.648L109.893 151.768L126.555 168.43C129.058 170.933 131.872 172.979 134.831 174.605C135.526 174.989 136.238 175.336 136.951 175.665C137.663 175.993 138.358 176.322 139.07 176.596C147.62 179.94 157.175 179.94 165.726 176.615C166.621 176.267 167.516 175.866 168.393 175.445C169.288 175.007 170.184 174.532 171.042 174.02C171.554 173.71 172.084 173.436 172.595 173.107C173.618 172.431 174.605 171.7 175.573 170.914C174.897 171.134 174.221 171.335 173.527 171.517C172.869 171.7 172.212 171.864 171.554 171.992L171.572 172.047Z" fill="#F1F2F5"/>
<path d="M134.685 52.2335L132.566 50.1142L130.447 47.9949L93.706 11.2542C86.8 4.34824 77.6103 0.529846 67.8176 0.529846C67.3609 0.529846 66.9042 0.584656 66.4291 0.602926C65.7166 0.621195 65.0041 0.639465 64.3098 0.712545C63.5973 0.785624 62.8848 0.913513 62.1905 1.02313C55.7961 2.0097 49.8219 4.62229 44.7794 8.71474C43.7928 9.51861 42.8428 10.359 41.9475 11.2725C41.4908 11.7293 41.1071 12.2043 40.6869 12.6793C39.4446 14.0678 38.2753 15.4929 37.2705 17.0092C36.9233 17.5208 36.6493 18.0506 36.3387 18.5805C35.8272 19.4391 35.3521 20.3161 34.9319 21.2113C34.5117 22.0883 34.1098 22.9835 33.7444 23.8787C33.2511 25.1576 32.8492 26.4365 32.502 27.7519C32.3011 28.4827 32.1184 29.2135 31.9722 29.9626C31.8261 30.6934 31.7347 31.4424 31.6251 32.1732C30.127 43.1351 33.5434 54.6451 41.9475 63.0493L126.482 147.566L128.601 149.685L130.721 151.804L134.85 155.933L136.969 158.052C137.645 158.747 138.376 159.35 139.088 159.971C147.255 166.968 157.778 169.763 167.863 168.375C168.594 168.284 169.325 168.192 170.056 168.046C170.805 167.9 171.554 167.699 172.285 167.498C173.582 167.151 174.861 166.749 176.121 166.256C177.035 165.908 177.912 165.507 178.789 165.068C179.684 164.63 180.561 164.155 181.42 163.661C181.949 163.351 182.479 163.058 182.991 162.73C184.507 161.725 185.932 160.574 187.321 159.313C187.796 158.893 188.271 158.491 188.727 158.052C189.641 157.139 190.481 156.189 191.285 155.221C202.941 140.861 202.101 119.649 188.727 106.294L134.667 52.2335H134.685Z" fill="#F1F2F5"/>
</g>
<defs>
<clipPath id="clip0_102_9">
<rect width="200.292" height="200" fill="white"/>
</clipPath>
</defs>
</svg>
