<svg width="378" height="126" viewBox="0 0 378 126" fill="none" xmlns="http://www.w3.org/2000/svg">
<path d="M178.336 82.64C176.075 82.64 173.92 82.4693 171.872 82.128C169.824 81.8293 168.181 81.4453 166.944 80.976V73.808C168.437 74.4053 170.123 74.8747 172 75.216C173.877 75.5147 175.605 75.664 177.184 75.664C179.317 75.664 180.811 75.536 181.664 75.28C182.56 75.024 183.008 74.448 183.008 73.552C183.008 72.528 182.325 71.7813 180.96 71.312C179.637 70.8427 177.653 70.1813 175.008 69.328C172.235 68.3893 170.101 67.2587 168.608 65.936C167.115 64.6133 166.368 62.6507 166.368 60.048C166.368 57.1467 167.413 54.928 169.504 53.392C171.637 51.8133 175.051 51.024 179.744 51.024C181.621 51.024 183.392 51.1733 185.056 51.472C186.72 51.728 188.128 52.048 189.28 52.432V59.536C188.128 58.9813 186.805 58.576 185.312 58.32C183.819 58.0213 182.432 57.872 181.152 57.872C179.317 57.872 177.845 58 176.736 58.256C175.669 58.512 175.136 59.0667 175.136 59.92C175.136 60.8587 175.712 61.52 176.864 61.904C178.059 62.288 179.893 62.864 182.368 63.632C184.8 64.3573 186.699 65.1467 188.064 66C189.429 66.8533 190.389 67.8773 190.944 69.072C191.499 70.224 191.776 71.6747 191.776 73.424C191.776 79.568 187.296 82.64 178.336 82.64ZM212.003 82.64C206.329 82.64 202.169 81.2747 199.524 78.544C196.878 75.7707 195.556 71.8667 195.556 66.832C195.556 61.7973 196.878 57.9147 199.524 55.184C202.212 52.4107 206.372 51.024 212.003 51.024C217.678 51.024 221.838 52.4107 224.484 55.184C227.172 57.9147 228.516 61.7973 228.516 66.832C228.516 71.8667 227.193 75.7707 224.548 78.544C221.902 81.2747 217.721 82.64 212.003 82.64ZM212.003 75.28C214.777 75.28 216.761 74.6613 217.956 73.424C219.15 72.144 219.748 69.9467 219.748 66.832C219.748 63.7173 219.15 61.5413 217.956 60.304C216.761 59.024 214.777 58.384 212.003 58.384C209.273 58.384 207.31 59.024 206.116 60.304C204.921 61.5413 204.324 63.7173 204.324 66.832C204.324 69.9467 204.921 72.144 206.116 73.424C207.31 74.6613 209.273 75.28 212.003 75.28ZM242.971 82.64C240.027 82.64 237.872 81.9573 236.507 80.592C235.184 79.2267 234.523 77.0507 234.523 74.064V38.864H243.163V73.36C243.163 74.4267 243.376 75.1733 243.803 75.6C244.23 75.984 244.848 76.176 245.659 76.176C246.768 76.176 247.771 76.0267 248.667 75.728V81.68C247.046 82.32 245.147 82.64 242.971 82.64ZM263.161 82.64C259.534 82.64 256.697 81.6373 254.649 79.632C252.643 77.584 251.641 74.5973 251.641 70.672V51.664H260.281V70.48C260.281 72.528 260.771 74.0213 261.753 74.96C262.734 75.856 264.206 76.304 266.169 76.304C267.662 76.304 269.027 76.0053 270.265 75.408C271.545 74.8107 272.633 74.064 273.529 73.168V51.664H282.169V82H274.169L273.849 79.12C272.569 80.144 271.054 80.9973 269.305 81.68C267.598 82.32 265.55 82.64 263.161 82.64ZM301.555 82.64C298.056 82.64 295.454 81.7227 293.747 79.888C292.083 78.0533 291.251 75.5573 291.251 72.4V58.32H286.963V51.664H291.251V45.136L299.891 42.576V51.664H307.571L307.059 58.32H299.891V71.824C299.891 73.488 300.275 74.64 301.043 75.28C301.811 75.8773 303.006 76.176 304.627 76.176C305.822 76.176 307.059 75.9627 308.339 75.536V81.488C307.4 81.872 306.376 82.1493 305.267 82.32C304.158 82.5333 302.92 82.64 301.555 82.64ZM314.885 46.096V39.312H324.293V46.096H314.885ZM315.589 82V58.064H311.045L311.813 51.664H324.229V82H315.589ZM340.034 82.64C337.09 82.64 334.935 81.9573 333.57 80.592C332.247 79.2267 331.586 77.0507 331.586 74.064V38.864H340.226V73.36C340.226 74.4267 340.439 75.1733 340.866 75.6C341.292 75.984 341.911 76.176 342.722 76.176C343.831 76.176 344.834 76.0267 345.73 75.728V81.68C344.108 82.32 342.21 82.64 340.034 82.64ZM361.336 82.64C359.075 82.64 356.92 82.4693 354.872 82.128C352.824 81.8293 351.181 81.4453 349.944 80.976V73.808C351.437 74.4053 353.123 74.8747 355 75.216C356.877 75.5147 358.605 75.664 360.184 75.664C362.317 75.664 363.811 75.536 364.664 75.28C365.56 75.024 366.008 74.448 366.008 73.552C366.008 72.528 365.325 71.7813 363.96 71.312C362.637 70.8427 360.653 70.1813 358.008 69.328C355.235 68.3893 353.101 67.2587 351.608 65.936C350.115 64.6133 349.368 62.6507 349.368 60.048C349.368 57.1467 350.413 54.928 352.504 53.392C354.637 51.8133 358.051 51.024 362.744 51.024C364.621 51.024 366.392 51.1733 368.056 51.472C369.72 51.728 371.128 52.048 372.28 52.432V59.536C371.128 58.9813 369.805 58.576 368.312 58.32C366.819 58.0213 365.432 57.872 364.152 57.872C362.317 57.872 360.845 58 359.736 58.256C358.669 58.512 358.136 59.0667 358.136 59.92C358.136 60.8587 358.712 61.52 359.864 61.904C361.059 62.288 362.893 62.864 365.368 63.632C367.8 64.3573 369.699 65.1467 371.064 66C372.429 66.8533 373.389 67.8773 373.944 69.072C374.499 70.224 374.776 71.6747 374.776 73.424C374.776 79.568 370.296 82.64 361.336 82.64Z" fill="#F1F2F5"/>
<g clip-path="url(#clip0_103_15)">
<path d="M39.1688 95.6366H24.7219C11.4357 95.6366 0.620605 106.468 0.620605 119.773V125.862H71.1314C68.7638 124.653 66.5686 123.076 64.6378 121.143L39.1688 95.6366V95.6366Z" fill="#F1F2F5"/>
<path d="M53.3514 0C56.0983 1.25459 58.6498 2.9926 60.845 5.19101L85.8427 30.2253H101.899C115.185 30.2253 126 19.3944 126 6.08879V0H53.3514Z" fill="#F1F2F5"/>
<path d="M87.5093 122.041C87.061 122.006 86.6128 121.972 86.1761 121.914C85.7278 121.856 85.2796 121.799 84.8428 121.718C79.7054 120.809 74.9702 118.369 71.2004 114.594L52.2711 95.6367L50.9379 94.3015L49.6047 92.9663L11.4013 54.7071C4.33294 47.6284 2.27565 37.4191 5.18344 28.4873C1.82742 32.5964 0 37.6838 0 43.059C0 49.2168 2.39059 55.0064 6.74651 59.3686L40.2837 92.9548L41.6169 94.29L42.9501 95.6252L66.5342 119.232C70.2924 122.996 75.1311 125.298 80.3375 125.85C81.1535 125.942 81.981 125.989 82.8085 125.989C83.9464 125.989 85.0612 125.885 86.1646 125.724C86.6128 125.655 87.061 125.597 87.4978 125.505C91.0836 124.768 94.4282 123.18 97.3015 120.844C94.7615 121.661 92.095 122.11 89.3482 122.11C88.7275 122.11 88.1069 122.064 87.4863 122.018L87.5093 122.041Z" fill="#F1F2F5"/>
<path d="M95.9107 115.56C93.0604 115.56 90.2216 115.065 87.5092 114.122C87.061 113.972 86.6127 113.822 86.176 113.65C85.7278 113.466 85.2795 113.247 84.8428 113.028C82.2798 111.808 79.8662 110.162 77.7515 108.033L65.3733 95.6366L64.0401 94.3014L62.7069 92.9663L17.9408 48.1578C13.0907 43.3006 10.4128 36.832 10.4128 29.9605C10.4128 27.6585 10.7346 25.4026 11.3207 23.2387C11.4357 22.8243 11.5506 22.41 11.677 21.9956C11.1943 22.5826 10.7461 23.1926 10.3438 23.8142C4.44781 32.7575 5.42474 44.9465 13.2861 52.8194L53.3629 92.9548L54.6961 94.2899L56.0293 95.6251L73.0622 112.683C76.3263 115.952 80.3949 118.116 84.8083 118.99C85.245 119.082 85.7048 119.129 86.1415 119.186C86.5897 119.244 87.0265 119.301 87.4747 119.336C88.0954 119.382 88.7045 119.428 89.3366 119.428C93.9109 119.428 98.2898 118.093 102.014 115.618C102.657 115.192 103.278 114.732 103.887 114.237C103.462 114.375 103.037 114.501 102.611 114.617C100.405 115.215 98.1519 115.526 95.8762 115.526L95.9107 115.56Z" fill="#F1F2F5"/>
<path d="M107.933 108.39C107.45 108.493 106.967 108.574 106.485 108.654C106.013 108.723 105.542 108.816 105.059 108.862C104.197 108.954 103.324 109 102.462 109C97.2096 109 91.9687 107.377 87.5093 104.177C87.0611 103.855 86.6014 103.544 86.1761 103.187C85.7164 102.807 85.2796 102.393 84.8429 101.979C84.659 101.806 84.4751 101.656 84.2912 101.484L78.4642 95.6481L77.131 94.3129L75.7977 92.9778L24.4921 41.5971C18.8259 35.9227 16.3664 28.234 17.1134 20.7985C17.1594 20.3151 17.2399 19.8432 17.3203 19.3598C17.4008 18.8764 17.4812 18.4045 17.5847 17.9325C17.6766 17.5067 17.78 17.0808 17.895 16.6664C18.0099 16.2291 18.1363 15.8032 18.2743 15.3773C17.78 15.9758 17.3203 16.6089 16.8951 17.2534C16.6767 17.5757 16.4928 17.9095 16.2974 18.2433C15.9756 18.7843 15.6768 19.3368 15.4124 19.9008C15.1481 20.4532 14.8953 21.0172 14.6654 21.5812C13.6425 24.217 13.0908 27.037 13.0908 29.9375C13.0908 36.0953 15.4814 41.8849 19.8373 46.2471L66.4653 92.9432L67.7985 94.2784L69.1317 95.6135L79.6135 106.111C81.1881 107.688 82.958 108.977 84.8199 110.001C85.2567 110.243 85.7049 110.461 86.1531 110.669C86.6014 110.876 87.0381 111.083 87.4863 111.256C92.8652 113.362 98.8761 113.362 104.255 111.267C104.818 111.048 105.381 110.795 105.933 110.531C106.496 110.254 107.059 109.955 107.599 109.633C107.921 109.437 108.255 109.264 108.576 109.057C109.22 108.631 109.841 108.171 110.45 107.676C110.025 107.814 109.599 107.941 109.163 108.056C108.749 108.171 108.335 108.275 107.921 108.355L107.933 108.39Z" fill="#F1F2F5"/>
<path d="M84.7279 32.907L83.3947 31.5719L82.0615 30.2367L58.9487 7.09011C54.6042 2.73933 48.8231 0.33374 42.6628 0.33374C42.3755 0.33374 42.0881 0.36827 41.7893 0.37978C41.3411 0.39129 40.8928 0.4028 40.4561 0.44884C40.0079 0.49488 39.5596 0.57545 39.1229 0.64451C35.1003 1.26605 31.342 2.91198 28.1699 5.49022C27.5492 5.99666 26.9516 6.52612 26.3884 7.10162C26.1011 7.38937 25.8597 7.68863 25.5954 7.98789C24.8138 8.86265 24.0783 9.76043 23.4461 10.7158C23.2278 11.038 23.0554 11.3718 22.86 11.7056C22.5382 12.2466 22.2394 12.7991 21.975 13.3631C21.7107 13.9155 21.4578 14.4795 21.228 15.0435C20.9176 15.8492 20.6648 16.6549 20.4464 17.4836C20.32 17.944 20.2051 18.4044 20.1131 18.8764C20.0212 19.3368 19.9637 19.8087 19.8947 20.2691C18.9523 27.1751 21.1015 34.4264 26.3884 39.721L79.5675 92.9662L80.9007 94.3014L82.2339 95.6366L84.8314 98.2378L86.1646 99.573C86.5898 100.01 87.0495 100.39 87.4978 100.782C92.6352 105.19 99.2553 106.951 105.6 106.076C106.059 106.019 106.519 105.961 106.979 105.869C107.45 105.777 107.921 105.65 108.381 105.524C109.197 105.305 110.001 105.052 110.795 104.741C111.369 104.522 111.921 104.269 112.473 103.993C113.036 103.717 113.587 103.417 114.128 103.107C114.461 102.911 114.794 102.727 115.116 102.52C116.07 101.886 116.966 101.161 117.84 100.367C118.139 100.102 118.438 99.8492 118.725 99.573C119.299 98.9975 119.828 98.399 120.334 97.7889C127.667 88.7421 127.138 75.379 118.725 66.9651L84.7164 32.907H84.7279Z" fill="#F1F2F5"/>
</g>
<defs>
<clipPath id="clip0_103_15">
<rect width="126" height="126" fill="white"/>
</clipPath>
</defs>
</svg>
